<svg version="1" xmlns="http://www.w3.org/2000/svg" viewBox="0 0 512 512">
  <path fill="#fff" d="M213 0C143 0 85 57 85 128v43c0 26 8 51 22 71A213 213 0 0 0 0 427v21c0 35 29 64 64 64h192a21 21 0 1 0 0-43H64c-12 0-21-9-21-21v-21c0-67 38-125 95-153 21 15 47 25 75 25 71 0 128-58 128-128v-43C341 57 284 0 213 0zm86 171a85 85 0 0 1-171 0v-43a85 85 0 0 1 171 0v43z"/>
  <path fill="#fff" d="M491 363h-86v-86a21 21 0 1 0-42 0v86h-86a21 21 0 1 0 0 42h86v86a21 21 0 1 0 42 0v-86h86a21 21 0 1 0 0-42z"/>
</svg>
