<svg version="1" xmlns="http://www.w3.org/2000/svg" viewBox="0 0 512 512">
  <circle fill="#fff" cx="364" cy="140" r="32"/>
  <path fill="#fff" d="M506 166c-10-27-30-66-62-99-33-32-72-51-99-62-29-11-63-4-85 18l-78 79a80 80 0 0 0-17 88c4 10 8 19 13 27L6 390c-4 4-6 9-6 14v88c0 11 9 20 20 20h88c11 0 20-9 20-20v-36h36c11 0 20-9 20-20v-36h36a20 20 0 1 0 0-40h-56c-11 0-20 9-20 20v36h-36c-11 0-20 9-20 20v36H40v-60l177-177c7-7 8-17 3-25-7-11-13-23-19-36-6-15-3-33 9-44l78-78c12-11 28-15 43-9 23 9 57 25 84 52 28 28 45 62 54 86 6 14 3 31-9 42l-79 79a40 40 0 0 1-44 9c-13-5-25-11-36-18a20 20 0 0 0-21 34c13 8 27 15 41 21 31 12 65 6 88-17l79-79c23-23 30-56 18-86z"/>
</svg>
